# xmcd
#
# Track frame offsets:
#	150
#	15939
#	36300
#	56967
#	74771
#	94025
#	112558
#	128445
#	144674
#	166507
#	186170
#	203777
#	222770
#
# Disc length: 3259 seconds
#
# Revision: 11
# Processed by: cddbd v1.5.2PL0 Copyright (c) Steve Scherf et al.
# Submitted via: EZCDAudioConverter 7.1.5.1
#
DISCID=ad0cb90d
DTITLE=张学友 - 黑与白 1985 - 2004  新歌＋精选 CD1
DYEAR=2004
DGENRE=
TTITLE0=黑白映画
TTITLE1=我不明白
TTITLE2=Sorry
TTITLE3=忘了哭
TTITLE4=如果不爱你
TTITLE5=咖啡
TTITLE6=我真的受伤了
TTITLE7=如果这都不算爱
TTITLE8=她来听我的演唱会
TTITLE9=二分之一的幸福
TTITLE10=女人香
TTITLE11=深海
TTITLE12=离人
EXTD=
EXTT0=
EXTT1=
EXTT2=
EXTT3=
EXTT4=
EXTT5=
EXTT6=
EXTT7=
EXTT8=
EXTT9=
EXTT10=
EXTT11=
EXTT12=
PLAYORDER=
